# AST/ASF file generated using VICON BodyLanguage
# -----------------------------------------------
:version 1.10
:name VICON
:units
  mass 1.0
  length 0.45
  angle deg
:documentation
   .ast/.asf automatically generated from VICON data using
   VICON BodyBuilder and BodyLanguage model FoxedUp or BRILLIANT.MOD
:root
   order TX TY TZ RX RY RZ
   axis XYZ
   position 0 0 0  
   orientation 0 0 0 
:bonedata
  begin
     id 1 
     name lhipjoint
     direction 0.623529 -0.717805 0.309788 
     length 2.23224 
     axis 0 0 0  XYZ
  end
  begin
     id 2 
     name lfemur
     direction 0.34202 -0.939693 0  
     length 7.11402  
     axis 0 0 20  XYZ
    dof rx ry rz
    limits (-160.0 20.0)
           (-70.0 70.0)
           (-60.0 70.0)
  end
  begin
     id 3 
     name ltibia
     direction 0.34202 -0.939693 0   
     length 6.78496   
     axis 0 0 20   XYZ
    dof rx
    limits (-10.0 170.0)
  end
  begin
     id 4 
     name lfoot
     direction 0.125078 -0.343648 0.930732   
     length 1.84054   
     axis -90 7.62852e-016 20   XYZ
    dof rx rz
    limits (-45.0 90.0)
           (-70.0 20.0)
  end
  begin
     id 5 
     name ltoes
     direction 1.53565e-011 -4.21893e-011 1   
     length 0.916474   
     axis -90 7.62852e-016 20   XYZ
    dof rx
    limits (-90.0 20.0)
  end
  begin
     id 6 
     name rhipjoint
     direction -0.564688 -0.757748 0.327026   
     length 2.11457  
     axis 0 0 0  XYZ 
  end
  begin
     id 7 
     name rfemur
     direction -0.34202 -0.939693 0   
     length 7.14609   
     axis 0 0 -20   XYZ
    dof rx ry rz
    limits (-160.0 20.0)
           (-70.0 70.0)
           (-70.0 60.0)
  end
  begin
     id 8 
     name rtibia
     direction -0.34202 -0.939693 0   
     length 6.78101   
     axis 0 0 -20   XYZ
    dof rx
    limits (-10.0 170.0)
 end
 begin
     id 9 
     name rfoot
     direction -0.0992671 -0.272734 0.956955   
     length 1.96168  
     axis -90 -7.62852e-016 -20   XYZ
    dof rx rz
    limits (-45.0 90.0)
           (-20.0 70.0)
  end
  begin
     id 10 
     name rtoes
     direction -1.5356e-011 -4.21891e-011 1   
     length 0.982933   
     axis -90 -7.62852e-016 -20   XYZ
    dof rx
    limits (-90.0 20.0)
  end
  begin
     id 11 
     name lowerback
     direction -0.00596953 0.998668 0.0512524   
     length 1.87557   
     axis 0 0 0   XYZ
    dof rx ry rz
    limits (-20.0 45.0)
           (-30.0 30.0)
           (-30.0 30.0)
  end
  begin
     id 12 
     name upperback
     direction 0.00584879 0.999652 0.0257308   
     length 1.87883   
     axis 0 0 0   XYZ
    dof rx ry rz
    limits (-20.0 45.0)
           (-30.0 30.0)
           (-30.0 30.0)
  end
  begin
     id 13 
     name thorax
     direction 0.010104 0.999947 0.00178881   
     length 1.87779   
     axis 0 0 0   XYZ
    dof rx ry rz
    limits (-20.0 45.0)
           (-30.0 30.0)
           (-30.0 30.0)
  end
  begin
     id 14 
     name lowerneck
     direction 0.0120771 0.995934 -0.0892773   
     length 1.40897   
     axis 0 0 0   XYZ
    dof rx ry rz
    limits (-20.0 45.0)
           (-30.0 30.0)
           (-30.0 30.0)
  end
  begin
     id 15 
     name upperneck
     direction -0.030568 0.999465 -0.0116366   
     length 1.38661   
     axis 0 0 0   XYZ
    dof rx ry rz
    limits (-20.0 45.0)
           (-30.0 30.0)
           (-30.0 30.0)
  end
  begin
     id 16
     name head
     direction -0.0170715 0.999854 -0.00104426  
     length 1.47052  
     axis 0 0 0   XYZ
    dof rx ry rz
    limits (-20.0 45.0)
           (-30.0 30.0)
           (-30.0 30.0)
  end
  begin
     id 17 
     name lclavicle
     direction 0.977763 0.206143 0.038532  
     length 3.02424  
     axis 0 0 0   XYZ
    dof ry rz
    limits (-20.0 10.0)
           (0.0 20.0)
  end
  begin
     id 18 
     name lhumerus
     direction 1 -4.48965e-011 -2.62654e-027   
     length 4.68382   
     axis 180 -30 -90   XYZ
    dof rx ry rz
    limits (-60.0 90.0)
           (-90.0 90.0)
           (-90.0 90.0)
  end
  begin
     id 19
     name lradius
     direction 1 -4.48973e-011 -1.54954e-027   
     length 2.98124   
     axis 180 -30 -90   XYZ
    dof rx
    limits (-10.0 170.0)
  end
  begin
     id 20
     name lwrist
     direction 1 -4.48959e-011 7.20928e-028   
     length 1.49062   
     axis -5.52449e-016 90 90   XYZ
    dof ry
    limits (-180.0 0.0)
 end
  begin
     id 21 
     name lhand
     direction 1 -4.48971e-011 1.44186e-027   
     length 0.707595   
     axis -9.20027e-016 90 90   XYZ
    dof rx rz
    limits (-90.0 90.0)
           (-45.0 45.0)
  end
  begin
     id 22 
     name lfingers
     direction 1 -4.48985e-011 2.88371e-027   
     length 0.570481   
     axis -1.84005e-015 90 90   XYZ
    dof rx
    limits (0.0 90.0)
  end
  begin
     id 23
     name lthumb
     direction 0.707107 -6.34929e-011 0.707107   
     length 0.819101   
     axis -90 45 2.85299e-015   XYZ
    dof rx rz
    limits (-45.0 45.0)
           (-45.0 45.0)
  end
  begin
     id 24 
     name rclavicle
     direction -0.958661 0.284411 -0.00895327   
     length 3.11921  
     axis 0 0 0   XYZ 
    dof ry rz
    limits (-10.0 20.0)
           (-20.0 0.0)
  end
  begin
     id 25 
     name rhumerus
     direction -1 -4.48963e-011 -4.22193e-027  
     length 4.75876   
     axis 180 30 90   XYZ
    dof rx ry rz
    limits (-90.0 60.0)
           (-90.0 90.0)
           (-90.0 90.0)
  end
  begin
     id 26 
     name rradius
     direction -1 -4.48968e-011 -1.07616e-027   
     length 2.93293   
     axis 180 30 90   XYZ
    dof rx
    limits (-10.0 170.0)
  end
  begin
     id 27 
     name rwrist
     direction -1 -4.48965e-011 7.20928e-028   
     length 1.46647   
     axis -5.52449e-016 -90 -90   XYZ
    dof ry
    limits (-180.0 0.0)
  end
  begin
     id 28
     name rhand
     direction -1 -4.48971e-011 1.44186e-027   
     length 0.831748   
     axis -9.20027e-016 -90 -90   XYZ
    dof rx rz
    limits (-90.0 90.0)
           (-45.0 45.0)
  end
  begin
     id 29
     name rfingers
     direction -1 -4.48961e-011 2.88371e-027   
     length 0.670577   
     axis -1.84005e-015 -90 -90   XYZ
    dof rx
    limits (0.0 90.0)
  end
  begin
     id 30
     name rthumb
     direction -0.707107 -6.34929e-011 0.707107   
     length 0.962818   
     axis -90 -45 -2.85299e-015   XYZ
    dof rx rz
    limits (-45.0 45.0)
           (-45.0 45.0)
  end
:hierarchy
  begin
    root lhipjoint rhipjoint lowerback
    lhipjoint lfemur
    lfemur ltibia
    ltibia lfoot
    lfoot ltoes
    rhipjoint rfemur
    rfemur rtibia
    rtibia rfoot
    rfoot rtoes
    lowerback upperback
    upperback thorax
    thorax lowerneck lclavicle rclavicle
    lowerneck upperneck
    upperneck head
    lclavicle lhumerus
    lhumerus lradius
    lradius lwrist
    lwrist lhand lthumb
    lhand lfingers
    rclavicle rhumerus
    rhumerus rradius
    rradius rwrist
    rwrist rhand rthumb
    rhand rfingers
  end

#!OML:ASF E:\id_vita\Project 1\Capture day 1\Session 1\Female.ASF
:FULLY-SPECIFIED
:DEGREES
444
root 6.51132 27.2867 -0.383541 -128.438 92.177 -146.677
lowerback -18.5325 0.121176 -4.00096
upperback -4.80236 1.25411 -0.917755
thorax 5.14206 0.710499 1.58736
lowerneck 0.811538 2.54122 -2.82107
upperneck 0.00430011 3.39202 4.56533
head -0.269494 1.69167 1.87845
rclavicle -1.35554e-014 -3.97569e-015
rhumerus -8.33932 16.8214 -35.7196
rradius 97.8021
rwrist 12.8006
rhand -48.3828 29.5966
rfingers 7.12502
rthumb -21.0361 0.71751
lclavicle -1.35554e-014 -3.97569e-015
lhumerus -0.210008 -2.66203 36.8347
lradius 91.0056
lwrist -24.069
lhand -43.8326 32.2113
lfingers 7.12502
lthumb -16.66 61.5163
rfemur -19.6605 13.373 15.7578
rtibia 21.7931
rfoot -12.3749 -14.37
rtoes -14.7503
lfemur -23.3386 -11.8199 -19.5645
ltibia 25.2995
lfoot -20.4139 8.17769
ltoes 6.65611
445
root 6.51479 27.2848 -0.386295 -129.136 92.0683 -147.392
lowerback -18.5388 0.147296 -3.88072
upperback -4.79921 1.26721 -0.931979
thorax 5.15128 0.717565 1.50717
lowerneck 0.608617 2.42258 -3.03102
upperneck 0.103962 3.23546 4.86293
head -0.207511 1.61653 2.01726
rclavicle 1.44429e-015 -1.19271e-015
rhumerus -8.68928 16.2465 -35.8964
rradius 97.5641
rwrist 12.7215
rhand -48.3938 30.0802
rfingers 7.12502
rthumb -21.0468 1.20236
lclavicle 1.44429e-015 -1.19271e-015
lhumerus -0.302681 -2.35001 36.6753
lradius 90.8435
lwrist -23.8161
lhand -43.5237 31.923
lfingers 7.12502
lthumb -16.3626 61.2528
rfemur -19.6377 13.359 15.8548
rtibia 21.7684
rfoot -12.3635 -14.3958
rtoes -14.6944
lfemur -23.3652 -11.666 -19.4997
ltibia 25.3552
lfoot -20.4853 8.01663
ltoes 6.60713
446
root 6.51965 27.2847 -0.3898 -133.238 91.9992 -151.512
lowerback -18.5468 0.182834 -3.68778
upperback -4.8087 1.27642 -0.911526
thorax 5.14891 0.723596 1.42173
lowerneck 1.08364 2.62395 -2.81192
upperneck -0.207569 3.50616 4.67648
head -0.388189 1.74429 1.90655
rclavicle 9.31182e-015 5.96354e-015
rhumerus -8.93675 15.6891 -36.1253
rradius 97.4359
rwrist 12.6647
rhand -48.5065 29.4799
rfingers 7.12502
rthumb -21.155 0.614056
lclavicle 9.31182e-015 5.96354e-015
lhumerus -0.359222 -1.97392 36.5907
lradius 90.6843
lwrist -23.645
lhand -43.209 32.1545
lfingers 7.12502
lthumb -16.0596 61.509
rfemur -19.6358 13.3572 16.0194
rtibia 21.7942
rfoot -12.4069 -14.3652
rtoes -14.7774
lfemur -23.3601 -11.5912 -19.3581
ltibia 25.3757
lfoot -20.4858 8.016
ltoes 6.48769
447
root 6.52506 27.284 -0.392719 -134.758 92.0975 -153.044
lowerback -18.5596 0.17601 -3.70054
upperback -4.81989 1.26972 -0.899454
thorax 5.1434 0.720612 1.44043
lowerneck 1.35352 2.72398 -2.9026
upperneck -0.375244 3.63981 4.75432
head -0.495362 1.80663 1.94165
rclavicle -6.71054e-015 -3.57812e-015
rhumerus -9.0536 15.3149 -36.3091
rradius 97.3342
rwrist 12.5309
rhand -48.7496 28.5425
rfingers 7.12502
rthumb -21.3886 -0.297015
lclavicle -6.71054e-015 -3.57812e-015
lhumerus -0.437669 -1.53875 36.6237
lradius 90.5025
lwrist -23.7151
lhand -43.4117 32.9256
lfingers 7.12502
lthumb -16.2548 62.2643
rfemur -19.6607 13.3296 15.9959
rtibia 21.835
rfoot -12.4788 -14.2934
rtoes -15.0029
lfemur -23.3277 -11.6298 -19.3855
ltibia 25.3787
lfoot -20.4678 8.17982
ltoes 6.48837
448
root 6.53112 27.2827 -0.39461 -131.497 92.2623 -149.808
lowerback -18.6406 0.107913 -3.94445
upperback -4.79502 1.23308 -0.930144
thorax 5.20993 0.699301 1.53946
lowerneck 1.264 2.70041 -2.9316
upperneck -0.283288 3.60708 4.79054
head -0.451548 1.79192 1.96076
rclavicle -1.15699e-015 -3.97569e-015
rhumerus -9.05843 14.8797 -36.5247
rradius 97.087
rwrist 12.3541
rhand -48.9073 28.5532
rfingers 7.12502
rthumb -21.54 -0.269055
lclavicle -1.15699e-015 -3.97569e-015
lhumerus -0.666017 -1.12412 36.5771
lradius 90.4042
lwrist -23.6837
lhand -43.2835 33.2524
lfingers 7.12502
lthumb -16.1313 62.601
rfemur -19.7101 13.3176 15.7632
rtibia 21.8885
rfoot -12.5036 -14.3175
rtoes -15.1413
lfemur -23.3259 -11.6617 -19.603
ltibia 25.3618
lfoot -20.4935 8.19731
ltoes 6.79882
449
root 6.5369 27.2825 -0.396146 -130.177 92.3761 -148.547
lowerback -18.7633 0.0444792 -4.10097
upperback -4.75435 1.18669 -0.934147
thorax 5.31763 0.672254 1.61595
lowerneck 1.03455 2.72422 -2.94123
upperneck -0.0945417 3.6375 4.82253
head -0.35587 1.81117 1.97698
rclavicle 1.71995e-014 -1.15295e-014
rhumerus -8.96276 14.3112 -36.7604
rradius 96.7924
rwrist 12.2797
rhand -48.6766 28.3255
rfingers 7.12502
rthumb -21.3184 -0.521884
lclavicle 1.71995e-014 -1.15295e-014
lhumerus -0.902838 -0.738676 36.4381
lradius 90.3536
lwrist -23.5245
lhand -43.0018 33.3933
lfingers 7.12502
lthumb -15.8601 62.7638
rfemur -19.8055 13.3675 15.6131
rtibia 21.9737
rfoot -12.5193 -14.3754
rtoes -15.1727
lfemur -23.3579 -11.7108 -19.7046
ltibia 25.3127
lfoot -20.495 8.21106
ltoes 7.13506
450
root 6.54203 27.2831 -0.39886 -131.273 92.4694 -149.675
lowerback -18.8054 0.00280366 -4.11903
upperback -4.72187 1.13493 -0.908913
thorax 5.37667 0.644137 1.64233
lowerneck 1.01293 2.80374 -2.89345
upperneck -0.198493 3.7469 4.73752
head -0.386103 1.8654 1.93929
rclavicle -8.91425e-016 1.63003e-014
rhumerus -8.83242 13.8592 -36.9573
rradius 96.6081
rwrist 12.1871
rhand -49.2364 29.1536
rfingers 7.12502
rthumb -21.856 0.367945
lclavicle -8.91425e-016 1.63003e-014
lhumerus -1.05862 -0.316636 36.3327
lradius 90.2022
lwrist -23.4316
lhand -42.7915 33.5299
lfingers 7.12502
lthumb -15.6576 62.9164
rfemur -19.8816 13.4137 15.5651
rtibia 22.0482
rfoot -12.5624 -14.3314
rtoes -15.2228
lfemur -23.3462 -11.8098 -19.7075
ltibia 25.2646
lfoot -20.467 8.35737
ltoes 7.33482
451
root 6.54578 27.2835 -0.402702 -132.221 92.5667 -150.678
lowerback -18.773 -0.0398048 -4.1279
upperback -4.76669 1.07579 -0.860063
thorax 5.31348 0.61765 1.68513
lowerneck 1.21133 2.85455 -2.95527
upperneck -0.424535 3.81683 4.72817
head -0.494283 1.89642 1.94202
rclavicle -1.41883e-014 2.78299e-015
rhumerus -8.75337 13.6608 -37.0537
rradius 96.5253
rwrist 11.908
rhand -49.1698 28.8384
rfingers 7.12502
rthumb -21.7921 0.0452633
lclavicle -1.41883e-014 2.78299e-015
lhumerus -1.19694 -0.0278975 36.2728
lradius 90.0212
lwrist -23.2751
lhand -42.6127 33.2856
lfingers 7.12502
lthumb -15.4854 62.6854
rfemur -19.9771 13.3963 15.5058
rtibia 22.089
rfoot -12.5589 -14.2808
rtoes -15.1127
lfemur -23.3726 -11.8676 -19.728
ltibia 25.2371
lfoot -20.4145 8.48495
ltoes 7.3629
452
root 6.54873 27.2827 -0.405345 -132.839 92.5305 -151.377
lowerback -18.7601 -0.0838131 -4.11022
upperback -4.85614 1.01066 -0.780742
thorax 5.21313 0.591203 1.74405
lowerneck 1.17573 2.89545 -3.1231
upperneck -0.225135 3.86259 4.73845
head -0.431915 1.92086 1.97653
rclavicle -1.25359e-014 5.56597e-015
rhumerus -8.7564 13.4944 -37.1062
rradius 96.4034
rwrist 11.6309
rhand -48.9001 28.8707
rfingers 7.12502
rthumb -21.533 0.0476663
lclavicle -1.25359e-014 5.56597e-015
lhumerus -1.35578 0.0591986 36.2299
lradius 90.0262
lwrist -23.103
lhand -42.4288 33.2501
lfingers 7.12502
lthumb -15.3082 62.6635
rfemur -20.07 13.3311 15.5395
rtibia 22.1222
rfoot -12.5547 -14.3134
rtoes -15.0604
lfemur -23.4312 -11.8451 -19.6777
ltibia 25.2072
lfoot -20.3854 8.48742
ltoes 7.22342
453
root 6.55312 27.2824 -0.407497 -133.385 92.4955 -151.943
lowerback -18.8932 -0.116144 -4.12748
upperback -4.82583 0.974548 -0.716298
thorax 5.31656 0.570437 1.81673
lowerneck 1.41002 2.97863 -3.24305
upperneck -0.365174 3.97229 4.83416
head -0.525356 1.97188 2.02317
rclavicle -1.06893e-014 -7.35503e-015
rhumerus -8.69739 13.1749 -37.2025
rradius 96.2305
rwrist 11.6464
rhand -49.0459 29.2484
rfingers 7.12502
rthumb -21.6731 0.441489
lclavicle -1.06893e-014 -7.35503e-015
lhumerus -1.5686 0.249956 36.2478
lradius 90.2404
lwrist -22.9435
lhand -42.303 33.1402
lfingers 7.12502
lthumb -15.1871 62.5629
rfemur -20.0863 13.2739 15.5875
rtibia 22.1484
rfoot -12.6986 -14.2312
rtoes -15.075
lfemur -23.4118 -11.8864 -19.6328
ltibia 25.1703
lfoot -20.3693 8.56312
ltoes 7.10673
454
root 6.55771 27.2823 -0.410447 -134.663 92.6544 -153.174
lowerback -18.2654 -0.0314996 -4.01608
upperback -5.25074 1.04733 -0.860313
thorax 4.53091 0.637098 1.60295
lowerneck 1.47638 2.9782 -3.13372
upperneck 0.199128 3.95731 4.96429
head -0.360502 1.96762 2.04913
rclavicle -1.57009e-014 5.56597e-015
rhumerus -9.3094 13.2923 -37.6627
rradius 96.1956
rwrist 11.8041
rhand -49.3119 29.328
rfingers 7.12502
rthumb -21.9285 0.550834
lclavicle -1.57009e-014 5.56597e-015
lhumerus -2.00849 -0.12994 36.0897
lradius 90.4262
lwrist -22.715
lhand -42.1234 32.9408
lfingers 7.12502
lthumb -15.0141 62.3765
rfemur -20.0457 13.2996 15.5306
rtibia 22.1574
rfoot -12.8394 -14.0515
rtoes -15.0436
lfemur -23.2999 -11.973 -19.6949
ltibia 25.1407
lfoot -20.323 8.79791
ltoes 7.00542
455
root 6.56077 27.2818 -0.412895 -136.392 92.7946 -154.819
lowerback -18.5317 -0.0148407 -4.18145
upperback -4.97719 1.1007 -0.757349
thorax 4.9553 0.643588 1.82465
lowerneck 0.817372 2.81844 -3.48466
upperneck 0.526643 3.74368 5.13232
head -0.147993 1.8702 2.1826
rclavicle -1.78836e-014 1.47101e-014
rhumerus -8.96419 12.8052 -37.6345
rradius 95.9234
rwrist 11.834
rhand -49.3216 28.9539
rfingers 7.12502
rthumb -21.9378 0.177801
lclavicle -1.78836e-014 1.47101e-014
lhumerus -1.70762 0.409013 36.4568
lradius 90.2405
lwrist -22.7547
lhand -41.9664 32.9321
lfingers 7.12502
lthumb -14.8628 62.379
rfemur -19.9632 13.3525 15.5213
rtibia 22.1546
rfoot -12.8025 -14.0195
rtoes -15.2201
lfemur -23.154 -11.8868 -19.7556
ltibia 25.1185
lfoot -20.333 8.84745
ltoes 6.88285
